<svg width="147" height="107" viewBox="0 0 147 107" fill="none" xmlns="http://www.w3.org/2000/svg">
<path d="M75.5913 0.0949631C67.0982 0.719086 57.8689 3.74471 50.0711 8.45275C45.286 11.3427 42.3141 13.6899 37.679 18.303C33.8346 22.1291 33.4256 22.5904 33.7528 22.8075C33.8619 22.8754 35.3069 22.9025 37.2155 22.8482C39.015 22.8075 40.8554 22.8211 41.3053 22.8889L42.1233 23.011L40.76 23.2553C36.4657 24.0286 30.8082 25.7924 27.6727 27.3256C25.5051 28.3839 23.5147 29.605 23.5147 29.8628C23.5147 30.0392 23.8828 29.9985 25.8323 29.5914C29.9221 28.7502 31.3807 28.601 36.3703 28.5331C41.537 28.4517 43.6365 28.5603 47.3309 29.103C57.1055 30.5412 67.5617 33.9196 77.5135 38.8718C80.1446 40.1879 83.0893 41.7618 83.0893 41.8703C83.0893 41.9246 82.9121 41.8568 80.1174 40.7171C73.71 38.0849 63.4856 35.0186 56.233 33.5261C48.6805 31.9794 43.8001 31.5452 35.0207 31.6538C29.0087 31.7216 28.1498 31.7894 24.2782 32.495C16.0577 34.001 10.1275 36.9723 6.8693 41.2327C5.99681 42.3859 4.79714 44.801 4.41543 46.1985C4.03371 47.6502 3.91102 50.5266 4.17004 52.6432C4.51085 55.4653 4.29273 58.6538 3.47477 62.6698C3.21575 63.9588 3.17486 64.0402 1.96155 65.6683C0.530128 67.5678 -0.00154398 69.413 0.107517 71.9638C0.202945 74.3517 0.884576 76.2784 2.49323 78.7613C3.80196 80.7965 6.48758 83.605 9.07778 85.6537L10.3865 86.6985L10.1957 87.9467C10.0866 88.6387 9.60945 91.1894 9.13231 93.6181C8.65517 96.0467 8.19166 98.5432 8.09623 99.1809C7.72815 101.745 8.38252 106.915 9.07778 106.915C9.17321 106.915 9.18684 106.372 9.11868 105.232C9.00962 103.265 9.22774 102.003 9.95027 100.47C11.5044 97.1321 15.8396 94.7035 21.8106 93.8352C25.0143 93.3603 26.9638 93.2789 34.1482 93.2789C39.7512 93.2789 41.9733 93.3331 44.3726 93.5231C50.9845 94.0522 57.2964 94.8256 63.731 95.9246C70.8472 97.1457 71.6651 97.2814 73.2193 97.4306C78.3997 97.9326 82.8439 96.3588 86.2929 92.7904C88.7332 90.2668 89.6602 88.3673 90.9144 83.3065C91.1734 82.2211 92.6866 75.9934 94.268 69.4673C96.7355 59.2643 98.4123 52.4804 98.9167 50.5809C99.0394 50.0924 99.0531 50.0924 99.9665 49.9839C101.439 49.8347 102.257 50.0517 105.27 51.4085C108.528 52.8739 109.264 53.0909 110.491 52.9824C111.718 52.8603 112.631 52.3854 113.531 51.4221C114.335 50.5538 114.581 49.9975 114.908 48.3015C115.808 43.607 114.812 40.8934 111.472 38.9668C110.423 38.3698 106.646 36.6331 105.815 36.3618C105.46 36.2533 104.806 36.2261 103.702 36.294L102.107 36.3754L103.266 35.697C104.574 34.9236 105.679 34.4623 106.251 34.4623C106.824 34.4623 107.764 34.8151 110.218 35.9412C114.54 37.9357 115.985 39.0075 116.898 40.8934C117.771 42.6844 117.852 44.2718 117.307 48.5728C116.544 54.6377 115.753 60.1733 115.589 60.7839C114.908 63.1447 113.463 64.4744 111.091 64.8678C110.191 65.0306 110.041 65.0171 109.182 64.7321C108.092 64.3794 105.079 63.1176 103.797 62.4663C102.543 61.8422 102.161 61.4894 101.289 60.1055C100.866 59.4271 100.43 58.8844 100.321 58.8844C100.212 58.8844 100.13 58.9115 100.13 58.9522C100.13 58.9794 99.4212 62.0186 98.5487 65.6955C96.1766 75.7764 96.2039 75.6271 97.0082 76.8482C97.4717 77.5266 99.3394 79.3583 100.812 80.5387C105.011 83.9306 110.518 86.305 115.426 86.8206C117.294 87.0241 121.479 86.997 123.169 86.7663C125.787 86.4271 128.513 85.6537 135.302 83.3744C142.009 81.1085 143.018 80.6472 143.482 79.6025C143.714 79.1005 143.754 78.707 143.754 76.4141C143.754 74.8537 143.7 73.6869 143.618 73.5241C143.427 73.1713 142.882 73.1849 141.069 73.6191C140.264 73.809 139.201 73.999 138.71 74.0397L137.824 74.1075L136.188 73.1171C133.939 71.7603 130.435 69.4266 128.963 68.2869C127.545 67.1879 127.054 66.4688 126.4 64.6236C125.582 62.2628 125.773 60.5397 126.959 59.7663C127.9 59.1422 130.872 58.0703 131.649 58.0703C132.235 58.0703 132.767 59.0744 135.057 64.5829C136.829 68.8432 137.811 70.9598 138.124 71.1904C138.492 71.4754 139.883 71.394 141.982 70.9598C145.813 70.1728 146.617 69.7794 146.617 68.694C146.617 67.812 143.714 58.9929 142.787 57.0256C142.5 56.4286 142.146 55.9809 141.573 55.4789C140.592 54.6377 140.524 54.4749 139.392 50.2553C135.548 35.8869 130.967 26.2402 124.423 18.71C115.971 8.9819 103.947 2.68642 89.8783 0.624107C86.9064 0.176369 83.9072 -1.52588e-05 80.0219 0.0271225C77.9225 0.0406952 75.9322 0.0678253 75.5913 0.0949631ZM41.169 37.0402C46.1585 37.2844 51.2571 37.7729 52.5658 38.1256C52.8249 38.207 53.1929 38.4105 53.3702 38.6005C53.6564 38.899 53.6701 39.0211 53.6019 39.7809C53.4929 40.907 51.1208 53.213 50.7527 54.597C50.3301 56.1573 50.2619 56.2115 48.4897 56.103C47.6854 56.0487 46.363 55.9538 45.5314 55.8859C36.3567 55.1261 23.8692 55.7095 17.1074 57.202C13.6311 57.9754 8.73697 59.8477 7.19648 61.001C6.96473 61.1774 6.71934 61.3266 6.66481 61.3266C6.52848 61.3266 6.69207 59.4407 7.08742 56.2387C7.68725 51.5171 8.0417 50.0382 9.10505 47.9623C9.52766 47.1347 9.95027 46.5919 10.8909 45.6558C12.2951 44.2447 12.2269 43.9462 10.7273 44.9502C8.35525 46.5241 6.80113 48.5186 5.84685 51.1914C5.64236 51.7749 5.4515 52.2226 5.42424 52.1955C5.31518 52.0733 5.79232 49.3734 6.06497 48.5457C8.09623 42.5216 15.3079 38.6548 26.9229 37.3794C31.1217 36.9316 36.2067 36.8095 41.169 37.0402ZM109.877 40.812C110.832 41.2598 111.472 41.9382 111.977 43.01C112.277 43.6342 112.331 43.9462 112.331 44.9095C112.331 45.9 112.277 46.1578 111.963 46.7548C111.036 48.5186 109.25 49.0342 107.464 48.0708C106.237 47.406 105.597 46.1442 105.474 44.204C105.42 43.1864 105.447 42.9558 105.719 42.413C106.019 41.7889 106.769 41.0698 107.56 40.6628C108.187 40.3236 108.95 40.3779 109.877 40.812ZM68.1752 42.2774C68.3661 42.413 68.6387 42.7387 68.7887 43.0236C69.702 44.8146 68.0934 46.5512 66.6892 45.3166C66.0758 44.7874 65.8576 44.2447 65.9394 43.4171C66.0758 42.101 67.0982 41.5854 68.1752 42.2774ZM65.3123 56.4558C66.662 57.2834 66.7983 59.4 65.5305 59.9291C64.249 60.4583 62.8312 58.803 63.322 57.3377C63.4992 56.7814 64.1672 56.1708 64.5762 56.1708C64.7261 56.1708 65.067 56.2929 65.3123 56.4558ZM43.0094 61.0553C49.035 61.6251 54.6107 62.7784 61.0044 64.8135C65.1351 66.1161 77.2545 70.4035 77.4999 70.6477C77.5817 70.7156 77.7044 70.7427 73.4783 70.01C67.2891 68.9382 58.5097 67.7578 54.3926 67.4457C48.0534 66.9573 36.8474 66.903 33.1939 67.3507C23.9237 68.4904 18.2116 70.5799 14.599 74.1482C12.854 75.8713 12.3905 76.9432 11.518 81.3799C10.8364 84.8261 10.591 85.7487 10.3456 85.7487C10.0866 85.7487 7.4146 83.1708 5.83322 81.407C4.38816 79.7789 3.5293 78.2457 3.0658 76.4683C2.73861 75.1658 2.71135 73.3749 2.99763 72.2487C4.32 67.2286 12.3223 63.0226 23.6511 61.408C24.9598 61.2181 26.5275 61.001 27.1274 60.9331C28.5315 60.7568 40.9508 60.8517 43.0094 61.0553Z" fill="#F3AA1C"/>
</svg>
